<?xml version="1.0" encoding="UTF-8"?>
<svg xmlns="http://www.w3.org/2000/svg" width="144" height="54" viewBox="0 0 144 54" fill="none">
  <path d="M52.3226 25.1066C52.3226 25.1066 50.8457 14.1362 58.6522 10.2679C66.4587 6.39973 73.1387 3.37594 74.2653 0C74.5473 7.73644 73.9131 19.7615 64.8417 24.052C55.7704 28.3424 52.8167 28.1304 50.5654 31.2261C51.3398 28.2023 53.4491 26.7955 57.6677 24.8263C61.888 22.8572 71.2415 16.6677 70.8192 7.31423C69.6927 11.5328 64.6998 20.2538 52.3226 25.1066Z" fill="#69BD45"></path>
  <path d="M24.1454 33.5312C24.1454 33.5312 24.1454 24.4832 12.1904 24.4832C0.235363 24.4832 0 36.2495 0 40.9855C0 45.7215 4.03172 53.8784 12.8462 53.8784C21.6606 53.8784 24.8946 47.971 24.8946 38.7343H13.3618V41.8282H21.8007C21.8007 41.8282 22.6865 50.4073 12.9396 50.4073C6.37637 50.3605 3.74964 45.9066 3.70293 39.7171C3.65622 33.5276 4.92107 27.4333 13.6888 27.4333C17.9092 27.5267 20.252 30.387 20.3472 33.7162C23.583 33.6713 24.1454 33.5312 24.1454 33.5312Z" fill="#499A44"></path>
  <path d="M29.4902 52.9406V32.4999H32.6308V36.016C32.6308 36.016 33.504 35.0135 34.5532 34.1996C35.7175 33.2977 36.5709 32.3634 40.1319 32.4999C40.1319 35.5004 40.1319 35.5004 40.1319 35.5004C40.1319 35.5004 37.834 35.2183 36.3337 35.6405C34.8335 36.0627 32.7709 38.4541 32.7709 38.4541V52.9406H29.4902Z" fill="#499A44"></path>
  <path d="M50.8228 32.4854C46.6024 32.4854 41.3525 34.4671 41.3525 42.8773C41.3525 51.2875 46.8845 53.2692 50.8228 53.2692C54.7611 53.2692 59.7773 51.8157 59.7773 43.0012C59.7773 34.1868 54.2921 32.4854 50.8228 32.4854ZM50.5658 50.8311C47.4486 50.8311 45.0573 49.5645 45.0573 42.3922C45.0573 35.2199 49.1824 35.0312 50.5658 34.9378C53.0686 34.7689 56.6368 36.3769 56.6368 42.7138C56.6368 49.0506 53.6831 50.8311 50.5658 50.8311Z" fill="#499A44"></path>
  <path d="M61.2773 32.4854L68.1226 52.9404H71.6387L76.8437 36.3913L81.9067 52.9404H85.7048L91.941 32.4854H88.5651L83.689 49.0021L78.7661 32.4854H74.9015L69.9516 49.1908L65.2623 32.4854H61.2773Z" fill="#499A44"></path>
  <path d="M94.6592 24.7168V48.3699C94.6592 50.8942 96.7056 52.9406 99.2299 52.9406H101.973V50.2205H100.426C98.9766 50.2205 97.8015 49.0455 97.8015 47.5955V24.7168H94.6592Z" fill="black"></path>
  <path d="M113.226 32.0779C105.021 32.0779 104.974 38.8298 104.974 38.8298L108.63 39.0166C108.63 36.0162 110.037 34.7495 113.413 34.7495C116.789 34.7495 117.445 37.0942 117.445 38.3123C117.445 39.5305 117.445 39.3436 117.351 41.3127C113.6 41.2193 106.428 41.0307 104.645 45.0175C102.863 49.0043 105.49 53.5498 110.506 53.5031C115.522 53.4564 117.632 49.8936 117.632 49.8936V52.9408H120.772C120.772 52.9408 120.772 43.7041 120.772 37.9386C120.447 34.516 117.96 32.0779 113.226 32.0779ZM117.445 47.4555C115.758 51.3471 107.786 52.612 107.646 47.4555C107.506 42.2991 117.445 42.7914 117.445 42.7914C117.445 42.7914 117.445 44.6905 117.445 47.4555Z" fill="black"></path>
  <path d="M136.527 32.0777C131.698 31.8442 129.729 35.9226 129.729 35.9226V24.7168H126.166V52.9406H129.635V50.1738C129.635 50.1738 132.027 53.9252 136.621 53.503C141.215 53.0808 143.7 50.3606 143.982 43.0949C144.264 35.8292 141.357 32.3113 136.527 32.0777ZM140.512 42.7913C140.326 47.2685 139.546 50.8529 135.083 50.8655C130.62 50.878 129.822 47.362 129.822 47.362V38.2673C129.822 38.2673 132.025 34.6578 135.636 34.8446C139.248 35.0315 140.701 38.314 140.512 42.7913Z" fill="black"></path>
</svg>
